<svg width="1965" height="1284" viewBox="0 0 1965 1284" fill="none" xmlns="http://www.w3.org/2000/svg">
<g opacity="0.15">
<rect x="1.41016" y="1.41016" width="317.985" height="317.985" rx="28.6654" stroke="#99AFA1" stroke-width="2.82031"/>
<rect x="324.216" y="1.41016" width="317.985" height="317.985" rx="28.6654" stroke="#99AFA1" stroke-width="2.82031"/>
<rect x="647.021" y="1.41016" width="317.985" height="317.985" rx="28.6654" stroke="#99AFA1" stroke-width="2.82031"/>
<rect x="969.827" y="1.41016" width="317.985" height="317.985" rx="28.6654" stroke="#99AFA1" stroke-width="2.82031"/>
<rect x="1292.63" y="1.41016" width="317.985" height="317.985" rx="28.6654" stroke="#99AFA1" stroke-width="2.82031"/>
<rect x="1615.44" y="1.41016" width="317.985" height="317.985" rx="28.6654" stroke="#99AFA1" stroke-width="2.82031"/>
<rect x="1.41016" y="322.216" width="317.985" height="317.985" rx="28.6654" stroke="#99AFA1" stroke-width="2.82031"/>
<rect x="324.216" y="322.216" width="317.985" height="317.985" rx="28.6654" stroke="#99AFA1" stroke-width="2.82031"/>
<rect x="647.021" y="322.216" width="317.985" height="317.985" rx="28.6654" stroke="#99AFA1" stroke-width="2.82031"/>
<rect x="969.827" y="322.216" width="317.985" height="317.985" rx="28.6654" stroke="#99AFA1" stroke-width="2.82031"/>
<rect x="1292.63" y="322.216" width="317.985" height="317.985" rx="28.6654" stroke="#99AFA1" stroke-width="2.82031"/>
<rect x="1615.44" y="322.216" width="317.985" height="317.985" rx="28.6654" stroke="#99AFA1" stroke-width="2.82031"/>
<rect x="1.41016" y="643.021" width="317.985" height="317.985" rx="28.6654" stroke="#99AFA1" stroke-width="2.82031"/>
<rect x="324.216" y="643.021" width="317.985" height="317.985" rx="28.6654" stroke="#99AFA1" stroke-width="2.82031"/>
<rect x="647.021" y="643.021" width="317.985" height="317.985" rx="28.6654" stroke="#99AFA1" stroke-width="2.82031"/>
<rect x="969.827" y="643.021" width="317.985" height="317.985" rx="28.6654" stroke="#99AFA1" stroke-width="2.82031"/>
<rect x="1292.63" y="643.021" width="317.985" height="317.985" rx="28.6654" stroke="#99AFA1" stroke-width="2.82031"/>
<rect x="1615.44" y="643.021" width="317.985" height="317.985" rx="28.6654" stroke="#99AFA1" stroke-width="2.82031"/>
<rect x="1.41016" y="963.827" width="317.985" height="317.985" rx="28.6654" stroke="#99AFA1" stroke-width="2.82031"/>
<rect x="324.216" y="963.827" width="317.985" height="317.985" rx="28.6654" stroke="#99AFA1" stroke-width="2.82031"/>
<rect x="647.021" y="963.827" width="317.985" height="317.985" rx="28.6654" stroke="#99AFA1" stroke-width="2.82031"/>
<rect x="969.827" y="963.827" width="317.985" height="317.985" rx="28.6654" stroke="#99AFA1" stroke-width="2.82031"/>
<rect x="1292.63" y="963.827" width="317.985" height="317.985" rx="28.6654" stroke="#99AFA1" stroke-width="2.82031"/>
<rect x="1615.44" y="963.827" width="317.985" height="317.985" rx="28.6654" stroke="#99AFA1" stroke-width="2.82031"/>
</g>
</svg>
