<svg width="2007" height="1284" viewBox="0 0 2007 1284" fill="none" xmlns="http://www.w3.org/2000/svg">
<g opacity="0.15">
<rect x="1.41016" y="1.41016" width="317.985" height="317.985" rx="28.6654" stroke="#99AFA1" stroke-width="2.82031"/>
<rect x="338.649" y="1.41016" width="317.985" height="317.985" rx="28.6654" stroke="#99AFA1" stroke-width="2.82031"/>
<rect x="675.888" y="1.41016" width="317.985" height="317.985" rx="28.6654" stroke="#99AFA1" stroke-width="2.82031"/>
<rect x="1013.13" y="1.41016" width="317.985" height="317.985" rx="28.6654" stroke="#99AFA1" stroke-width="2.82031"/>
<rect x="1350.37" y="1.41016" width="317.985" height="317.985" rx="28.6654" stroke="#99AFA1" stroke-width="2.82031"/>
<rect x="1687.61" y="1.41016" width="317.985" height="317.985" rx="28.6654" stroke="#99AFA1" stroke-width="2.82031"/>
<rect x="1.41016" y="322.216" width="317.985" height="317.985" rx="28.6654" stroke="#99AFA1" stroke-width="2.82031"/>
<rect x="338.649" y="322.216" width="317.985" height="317.985" rx="28.6654" stroke="#99AFA1" stroke-width="2.82031"/>
<rect x="675.888" y="322.216" width="317.985" height="317.985" rx="28.6654" stroke="#99AFA1" stroke-width="2.82031"/>
<rect x="1013.13" y="322.216" width="317.985" height="317.985" rx="28.6654" stroke="#99AFA1" stroke-width="2.82031"/>
<rect x="1350.37" y="322.216" width="317.985" height="317.985" rx="28.6654" stroke="#99AFA1" stroke-width="2.82031"/>
<rect x="1687.61" y="322.216" width="317.985" height="317.985" rx="28.6654" stroke="#99AFA1" stroke-width="2.82031"/>
<rect x="1.41016" y="643.021" width="317.985" height="317.985" rx="28.6654" stroke="#99AFA1" stroke-width="2.82031"/>
<rect x="338.649" y="643.021" width="317.985" height="317.985" rx="28.6654" stroke="#99AFA1" stroke-width="2.82031"/>
<rect x="675.888" y="643.021" width="317.985" height="317.985" rx="28.6654" stroke="#99AFA1" stroke-width="2.82031"/>
<rect x="1013.13" y="643.021" width="317.985" height="317.985" rx="28.6654" stroke="#99AFA1" stroke-width="2.82031"/>
<rect x="1350.37" y="643.021" width="317.985" height="317.985" rx="28.6654" stroke="#99AFA1" stroke-width="2.82031"/>
<rect x="1687.61" y="643.021" width="317.985" height="317.985" rx="28.6654" stroke="#99AFA1" stroke-width="2.82031"/>
<rect x="1.41016" y="963.827" width="317.985" height="317.985" rx="28.6654" stroke="#99AFA1" stroke-width="2.82031"/>
<rect x="338.649" y="963.827" width="317.985" height="317.985" rx="28.6654" stroke="#99AFA1" stroke-width="2.82031"/>
<rect x="675.888" y="963.827" width="317.985" height="317.985" rx="28.6654" stroke="#99AFA1" stroke-width="2.82031"/>
<rect x="1013.13" y="963.827" width="317.985" height="317.985" rx="28.6654" stroke="#99AFA1" stroke-width="2.82031"/>
<rect x="1350.37" y="963.827" width="317.985" height="317.985" rx="28.6654" stroke="#99AFA1" stroke-width="2.82031"/>
<rect x="1687.61" y="963.827" width="317.985" height="317.985" rx="28.6654" stroke="#99AFA1" stroke-width="2.82031"/>
</g>
</svg>
