<svg width="44" height="43" viewBox="0 0 44 43" fill="none" xmlns="http://www.w3.org/2000/svg">
<path d="M17.3776 7.03987C17.5384 6.07147 18.3781 5.36035 19.3608 5.36035H23.9938C24.9765 5.36035 25.8162 6.07147 25.9771 7.03987L26.3576 9.32866C26.4702 9.9969 26.9169 10.5544 27.5101 10.8831C27.6423 10.9546 27.7727 11.0314 27.9031 11.11C28.4838 11.4602 29.1896 11.5692 29.8239 11.3316L31.9983 10.5168C32.4439 10.3493 32.9345 10.3453 33.3828 10.5056C33.8311 10.6659 34.2079 10.9802 34.4461 11.3923L36.7617 15.4071C36.9995 15.8193 37.0832 16.3025 36.9982 16.7707C36.9131 17.2388 36.6647 17.6617 36.2972 17.9639L34.5051 19.4415C33.9816 19.8721 33.7225 20.5368 33.7368 21.2139C33.7393 21.3658 33.7393 21.5177 33.7368 21.6696C33.7225 22.3449 33.9816 23.0096 34.5051 23.4402L36.299 24.9178C37.0565 25.5432 37.2531 26.6241 36.7635 27.4728L34.4443 31.4876C34.2064 31.8997 33.83 32.214 33.3822 32.3747C32.9343 32.5353 32.4439 32.5318 31.9983 32.3649L29.8239 31.5501C29.1896 31.3125 28.4838 31.4215 27.9014 31.7717C27.7718 31.8505 27.6408 31.9267 27.5083 32.0004C26.9169 32.3274 26.4702 32.8848 26.3576 33.5531L25.9771 35.8418C25.8162 36.812 24.9765 37.5214 23.9938 37.5214H19.359C18.3763 37.5214 17.5384 36.8103 17.3758 35.8418L16.9952 33.5531C16.8844 32.8848 16.4377 32.3274 15.8445 31.9986C15.7121 31.9255 15.581 31.8499 15.4515 31.7717C14.8708 31.4215 14.165 31.3125 13.529 31.5501L11.3545 32.3649C10.9091 32.532 10.4189 32.5357 9.97105 32.3754C9.52318 32.2151 9.14668 31.9012 8.90849 31.4894L6.59111 27.4746C6.35337 27.0624 6.26958 26.5792 6.35465 26.1111C6.43971 25.6429 6.68811 25.2201 7.05566 24.9178L8.84953 23.4402C9.37125 23.0114 9.63032 22.3449 9.61782 21.6696C9.61502 21.5177 9.61502 21.3658 9.61782 21.2139C9.63032 20.535 9.37125 19.8721 8.84953 19.4415L7.05566 17.9639C6.68856 17.6618 6.44044 17.2393 6.35539 16.7715C6.27034 16.3037 6.35386 15.8209 6.59111 15.4089L8.90849 11.3941C9.14646 10.9816 9.52314 10.667 9.97143 10.5064C10.4197 10.3457 10.9105 10.3494 11.3563 10.5168L13.529 11.3316C14.165 11.5692 14.8708 11.4602 15.4515 11.11C15.5801 11.0314 15.7123 10.9564 15.8445 10.8813C16.4377 10.5544 16.8844 9.9969 16.9952 9.32866L17.3776 7.03987Z" stroke="white" stroke-width="1.00056" stroke-linecap="round" stroke-linejoin="round"/>
<path d="M27.0367 21.4402C27.0367 22.8619 26.472 24.2252 25.4668 25.2305C24.4616 26.2357 23.0982 26.8004 21.6766 26.8004C20.255 26.8004 18.8916 26.2357 17.8864 25.2305C16.8811 24.2252 16.3164 22.8619 16.3164 21.4402C16.3164 20.0186 16.8811 18.6553 17.8864 17.65C18.8916 16.6448 20.255 16.0801 21.6766 16.0801C23.0982 16.0801 24.4616 16.6448 25.4668 17.65C26.472 18.6553 27.0367 20.0186 27.0367 21.4402Z" stroke="white" stroke-width="1.00056" stroke-linecap="round" stroke-linejoin="round"/>
</svg>
