<svg width="611" height="108" viewBox="0 0 611 108" fill="none" xmlns="http://www.w3.org/2000/svg">
<path d="M497.257 104.691C495.345 104.691 493.993 102.819 494.595 101.004L526.47 4.82828C526.851 3.68086 527.923 2.90625 529.132 2.90625H576.098C577.317 2.90625 578.397 3.69437 578.769 4.85583L609.545 101.032C610.124 102.841 608.774 104.691 606.874 104.691H559.71C558.347 104.691 557.181 103.711 556.947 102.368L554.994 91.1641C554.76 89.8214 553.594 88.8414 552.231 88.8414H535.865C534.567 88.8414 533.438 89.7323 533.137 90.995L530.384 102.537C530.083 103.8 528.954 104.691 527.656 104.691H497.257ZM539.71 62.9933C539.29 64.7558 540.626 66.4488 542.438 66.4488H547.49C549.226 66.4488 550.545 64.8882 550.255 63.1769L548.16 50.793C547.651 47.7818 543.377 47.6389 542.668 50.6094L539.71 62.9933Z" fill="#5ED88D"/>
<path d="M454.266 104.691C452.717 104.691 451.462 103.435 451.462 101.886V52.3859C451.462 50.8372 450.206 49.5817 448.657 49.5817H444.087C442.539 49.5817 441.283 50.8372 441.283 52.3859V101.886C441.283 103.435 440.028 104.691 438.479 104.691H393.777C392.228 104.691 390.973 103.435 390.973 101.886V5.71049C390.973 4.16175 392.228 2.90625 393.777 2.90625H438.479C440.028 2.90625 441.283 4.16175 441.283 5.71049V26.4206C441.283 27.9693 442.539 29.2248 444.087 29.2248H448.657C450.206 29.2248 451.462 27.9693 451.462 26.4206V5.71049C451.462 4.16175 452.717 2.90625 454.266 2.90625H498.968C500.517 2.90625 501.772 4.16175 501.772 5.71049V101.886C501.772 103.435 500.517 104.691 498.968 104.691H454.266Z" fill="#5ED88D"/>
<path d="M341.984 107.601C308.54 107.601 286.293 86.226 286.293 54.0912C286.293 21.6655 309.849 0 343.292 0C365.712 0 382.22 9.76814 391.244 27.1293C392.112 28.798 390.994 30.765 389.127 30.9929L364.06 34.0528C362.791 34.2077 361.611 33.4605 360.936 32.375C359.129 29.4726 356.191 27.7726 352.453 27.7726C346.491 27.7726 342.42 31.9894 342.42 38.0965C342.42 44.2035 346.491 48.7111 352.308 48.7111C356.056 48.7111 359.16 46.8859 361.251 43.6045C361.886 42.6079 362.979 41.948 364.156 42.0546L393.966 44.7529C395.144 44.8595 396.138 45.6916 396.39 46.8469C397.001 49.6384 397.383 52.67 397.383 56.5631C397.383 86.8076 374.991 107.601 341.984 107.601Z" fill="#5ED88D"/>
<path d="M231.853 104.691C230.305 104.691 229.049 103.435 229.049 101.886V26.0674C229.049 24.5187 227.794 23.2632 226.245 23.2632H209.752C208.203 23.2632 206.947 22.0077 206.947 20.4589V5.71049C206.947 4.16176 208.203 2.90625 209.752 2.90625H298.657C300.206 2.90625 301.461 4.16175 301.461 5.71049V20.4589C301.461 22.0076 300.206 23.2632 298.657 23.2632H282.164C280.615 23.2632 279.36 24.5187 279.36 26.0674V101.886C279.36 103.435 278.104 104.691 276.555 104.691H231.853Z" fill="#5ED88D"/>
<path d="M118.216 104.691C116.304 104.691 114.952 102.819 115.554 101.004L147.429 4.82828C147.81 3.68086 148.882 2.90625 150.091 2.90625H197.057C198.276 2.90625 199.356 3.69437 199.728 4.85583L230.504 101.032C231.083 102.841 229.733 104.691 227.833 104.691H180.669C179.306 104.691 178.14 103.711 177.906 102.368L175.953 91.1641C175.719 89.8214 174.553 88.8414 173.19 88.8414H156.824C155.526 88.8414 154.397 89.7323 154.096 90.995L151.343 102.537C151.042 103.8 149.913 104.691 148.615 104.691H118.216ZM160.669 62.9933C160.249 64.7558 161.585 66.4488 163.397 66.4488H168.449C170.185 66.4488 171.504 64.8882 171.214 63.1769L169.119 50.793C168.61 47.7818 164.336 47.6389 163.627 50.6094L160.669 62.9933Z" fill="#5ED88D"/>
<path d="M60.6191 100.232C59.678 102.58 56.3543 102.58 55.4132 100.232L49.0281 84.3017C47.8798 81.4367 43.6209 82.2584 43.6209 85.345V101.886C43.6209 103.435 42.3654 104.691 40.8167 104.691H2.80326C1.25452 104.691 -0.000976562 103.435 -0.000976562 101.886V5.71049C-0.000976562 4.16175 1.25452 2.90625 2.80326 2.90625H44.2472C45.2921 2.90625 46.2504 3.4873 46.7336 4.41386L55.8205 21.8393C56.8688 23.8495 59.7452 23.8495 60.7935 21.8393L69.8804 4.41386C70.3635 3.4873 71.3218 2.90625 72.3668 2.90625H119.918C121.467 2.90625 122.722 4.16175 122.722 5.71049V101.886C122.722 103.435 121.467 104.691 119.918 104.691H75.2156C73.6669 104.691 72.4114 103.435 72.4114 101.886V85.345C72.4114 82.2584 68.1525 81.4367 67.0042 84.3017L60.6191 100.232Z" fill="#5ED88D"/>
</svg>
