<?xml version="1.0" encoding="utf-8"?>
<!-- Generator: Adobe Illustrator 28.3.0, SVG Export Plug-In . SVG Version: 6.00 Build 0)  -->
<svg version="1.1" id="Layer_1" xmlns="http://www.w3.org/2000/svg" xmlns:xlink="http://www.w3.org/1999/xlink" x="0px" y="0px"
	 viewBox="0 0 37 31" style="enable-background:new 0 0 37 31;" xml:space="preserve">
<style type="text/css">
	.st0{fill:#01C482;}
</style>
<path class="st0" d="M18,23.8c-0.3,0.3-0.8,0.3-1.1,0l-2.4-2.1c-0.5-0.5-1.4-0.1-1.4,0.6v7.5c0,0.5-0.4,0.8-0.8,0.8H0.8
	c-0.5,0-0.8-0.4-0.8-0.8v-29C0,0.4,0.4,0,0.8,0h12.5c0.3,0,0.6,0.2,0.7,0.5l2.7,5.3c0.3,0.6,1.2,0.6,1.5,0l2.7-5.3
	C21.2,0.2,21.5,0,21.8,0h14.3C36.6,0,37,0.4,37,0.8v29c0,0.5-0.4,0.8-0.8,0.8H22.7c-0.5,0-0.8-0.4-0.8-0.8v-7.5
	c0-0.7-0.9-1.1-1.4-0.6L18,23.8z"/>
</svg>
