<svg width="37" height="31" viewBox="0 0 37 31" fill="none" xmlns="http://www.w3.org/2000/svg">
<path d="M18.0472 23.7713C17.7288 24.0487 17.2546 24.0487 16.9362 23.7713L14.5526 21.6938C14.0056 21.217 13.1517 21.6055 13.1517 22.3312V29.8417C13.1517 30.3087 12.7731 30.6872 12.3062 30.6872H0.845463C0.378526 30.6872 0 30.3087 0 29.8417V0.845465C0 0.378528 0.378527 0 0.845464 0H13.3405C13.6555 0 13.9444 0.175182 14.0901 0.454538L16.8297 5.70816C17.1458 6.31421 18.013 6.31421 18.329 5.70816L21.0687 0.454539C21.2143 0.175183 21.5033 0 21.8183 0H36.1545C36.6215 0 37 0.378527 37 0.845464V29.8417C37 30.3087 36.6215 30.6872 36.1545 30.6872H22.6772C22.2103 30.6872 21.8318 30.3087 21.8318 29.8417V22.3312C21.8318 21.6055 20.9778 21.217 20.4308 21.6938L18.0472 23.7713Z" fill="#5ED88D"/>
</svg>
